<?xml version="1.0" standalone="no"?>
<!DOCTYPE svg PUBLIC "-//W3C//DTD SVG 20010904//EN"
 "http://www.w3.org/TR/2001/REC-SVG-20010904/DTD/svg10.dtd">
<svg version="1.0" xmlns="http://www.w3.org/2000/svg"
 width="818.000000pt" height="980.000000pt" viewBox="0 0 818.000000 980.000000"
 preserveAspectRatio="xMidYMid meet">

<g transform="translate(0.000000,980.000000) scale(0.100000,-0.100000)"
fill="#000000" stroke="none">
<path d="M3885 9793 c-725 -60 -1327 -332 -1810 -819 -219 -220 -383 -451
-525 -739 -128 -259 -201 -471 -255 -740 -51 -254 -57 -329 -62 -866 l-5 -506
-102 -6 c-436 -25 -860 -336 -1027 -753 -17 -42 -43 -120 -57 -173 l-27 -96
-3 -1980 c-2 -1394 0 -2004 8 -2060 36 -263 157 -504 350 -695 174 -173 357
-273 615 -337 65 -16 267 -17 3058 -20 3312 -4 3085 -8 3295 62 363 122 650
408 771 771 64 191 61 72 61 2224 0 2135 3 2034 -57 2215 -153 471 -586 814
-1059 842 l-102 6 -5 506 c-5 537 -11 613 -62 866 -137 682 -505 1290 -1030
1705 -430 339 -951 542 -1518 589 -118 10 -356 12 -452 4z m445 -824 c387 -48
756 -204 1053 -447 94 -78 267 -257 339 -353 218 -291 358 -645 397 -1011 6
-54 11 -305 11 -568 l0 -470 -2040 0 -2040 0 0 479 c0 380 3 505 16 603 45
351 180 683 392 967 70 94 231 262 333 347 286 239 669 404 1049 453 96 12
393 13 490 0z m11 -4518 c211 -71 378 -214 474 -406 66 -132 88 -223 88 -375
-1 -382 -181 -669 -486 -771 -43 -15 -80 -29 -83 -31 -2 -3 124 -369 281 -814
157 -445 285 -815 285 -821 0 -10 -169 -13 -810 -13 -641 0 -810 3 -810 13 0
6 119 375 265 818 146 444 265 811 265 817 0 5 -17 12 -39 16 -63 10 -197 83
-261 142 -131 122 -206 295 -231 536 -46 440 220 816 646 914 40 9 104 13 190
10 115 -3 141 -7 226 -35z"/>
</g>
</svg>
