<?xml version="1.0" standalone="no"?>
<!DOCTYPE svg PUBLIC "-//W3C//DTD SVG 20010904//EN"
 "http://www.w3.org/TR/2001/REC-SVG-20010904/DTD/svg10.dtd">
<svg version="1.0" xmlns="http://www.w3.org/2000/svg"
 width="940.000000pt" height="980.000000pt" viewBox="0 0 940.000000 980.000000"
 preserveAspectRatio="xMidYMid meet">

<g transform="translate(0.000000,980.000000) scale(0.100000,-0.100000)"
fill="#000000" stroke="none">
<path d="M1330 9790 c-158 -6 -197 -11 -270 -33 -240 -73 -435 -187 -616 -360
-203 -193 -343 -439 -394 -687 -20 -96 -39 -327 -40 -467 l0 -63 2856 0 2857
0 -6 203 c-4 151 -10 226 -26 299 -112 519 -459 887 -1015 1077 l-118 41
-1522 -2 c-836 -1 -1604 -5 -1706 -8z m2201 -820 c61 -12 102 -45 130 -105 27
-57 24 -112 -8 -176 -40 -77 -66 -87 -255 -100 -191 -14 -1121 -5 -1193 10
-83 18 -121 58 -146 153 -18 68 -1 118 63 179 l51 49 652 0 c399 0 673 -4 706
-10z m867 -11 c52 -26 98 -85 107 -139 18 -109 -93 -241 -202 -240 -99 1 -203
115 -203 223 0 60 61 138 130 166 44 17 121 13 168 -10z"/>
<path d="M17 7753 c-4 -3 -7 -1198 -7 -2655 l0 -2648 2102 0 2103 0 -210 212
c-116 117 -568 573 -1006 1013 -911 917 -993 1004 -1056 1129 -32 64 -52 175
-53 294 -1 320 160 570 460 716 l104 51 206 0 c341 0 321 12 911 -565 l366
-359 31 67 c112 243 304 405 549 463 73 17 110 20 213 17 142 -5 234 -31 350
-96 36 -20 68 -38 72 -40 4 -2 32 46 63 107 94 184 233 313 423 391 l82 34 0
938 0 938 -2848 0 c-1567 0 -2852 -3 -2855 -7z"/>
<path d="M7059 5890 c-100 -18 -200 -94 -246 -188 -22 -45 -28 -73 -31 -146
-5 -109 7 -158 53 -225 19 -28 50 -74 69 -101 41 -60 54 -124 36 -183 -15 -51
-83 -120 -135 -137 -84 -28 -137 7 -400 260 -275 264 -331 305 -435 320 -146
21 -299 -57 -367 -187 -53 -99 -67 -248 -32 -316 21 -39 143 -178 320 -362
210 -220 244 -268 243 -341 -1 -109 -89 -194 -202 -194 -84 0 -96 11 -659 561
-149 146 -312 300 -361 342 -83 69 -96 76 -147 82 -192 24 -365 -72 -414 -229
-24 -79 -27 -200 -7 -258 21 -58 109 -158 396 -452 611 -626 586 -597 577
-675 -7 -57 -34 -116 -69 -148 -26 -24 -102 -43 -176 -43 l-45 0 -881 878
c-485 482 -981 972 -1103 1088 -249 237 -251 238 -394 237 -60 0 -88 -6 -133
-26 -66 -30 -154 -114 -186 -177 -43 -84 -44 -234 -3 -313 27 -53 283 -316
1492 -1531 1184 -1191 1649 -1666 1682 -1721 11 -16 19 -48 19 -71 0 -48 -43
-139 -76 -160 -40 -27 -230 -60 -1519 -269 -597 -97 -720 -121 -786 -156 -254
-136 -356 -503 -169 -608 39 -22 58 -24 278 -33 148 -6 937 -7 2092 -4 l1855
7 145 40 c271 77 486 178 675 319 116 86 334 290 615 576 444 453 575 638 683
970 67 205 77 275 77 553 0 271 -10 373 -46 497 -49 172 -148 385 -246 535
-79 120 -852 985 -1479 1654 -236 251 -287 301 -333 320 -42 18 -168 26 -227
15z"/>
<path d="M15 1668 c8 -468 15 -547 61 -680 144 -414 422 -708 834 -885 189
-81 207 -84 625 -93 440 -10 1320 -12 1354 -3 19 5 9 13 -68 49 -144 70 -266
199 -323 346 -30 76 -37 295 -13 403 39 176 118 311 269 460 198 196 225 204
1396 390 810 128 732 113 716 136 -7 10 -65 73 -130 139 l-117 120 -2305 0
-2306 0 7 -382z"/>
</g>
</svg>
