<?xml version="1.0" standalone="no"?>
<!DOCTYPE svg PUBLIC "-//W3C//DTD SVG 20010904//EN"
 "http://www.w3.org/TR/2001/REC-SVG-20010904/DTD/svg10.dtd">
<svg version="1.0" xmlns="http://www.w3.org/2000/svg"
 width="503.000000pt" height="508.000000pt" viewBox="0 0 503.000000 508.000000"
 preserveAspectRatio="xMidYMid meet">

<g transform="translate(0.000000,508.000000) scale(0.100000,-0.100000)"
fill="#000000" stroke="none">
<path d="M1202 5050 c-56 -34 -72 -73 -72 -172 l0 -88 -74 0 c-80 0 -119 -18
-160 -73 -19 -25 -21 -42 -21 -157 0 -143 7 -161 75 -207 l33 -23 631 0 c612
0 632 1 664 20 61 37 72 70 72 210 0 107 -3 130 -20 158 -32 53 -74 72 -157
72 l-73 0 0 83 c0 96 -17 140 -69 174 -34 23 -35 23 -415 23 -363 0 -383 -1
-414 -20z"/>
<path d="M227 4706 c-93 -25 -181 -112 -207 -204 -6 -25 -10 -649 -10 -1858 0
-2075 -8 -1887 88 -1984 98 -97 2 -90 1213 -90 l1057 0 81 141 c44 77 81 143
81 145 0 2 -502 4 -1115 4 l-1115 0 2 1783 3 1782 190 5 190 5 0 143 0 142
-205 -1 c-134 0 -222 -5 -253 -13z"/>
<path d="M2545 4571 l0 -151 192 0 193 0 2 -1433 3 -1434 143 247 142 248 -2
1223 -3 1224 -28 57 c-32 64 -80 111 -146 142 -42 19 -68 21 -271 24 l-225 4
0 -151z"/>
<path d="M606 4004 c-9 -8 -18 -25 -21 -37 -3 -12 -5 -152 -3 -310 l3 -289 24
-19 c22 -18 43 -19 321 -19 278 0 299 1 321 19 24 19 24 19 27 288 4 285 0
344 -24 368 -23 23 -625 22 -648 -1z m598 -105 c63 -50 68 -42 -160 -270 -115
-115 -216 -209 -225 -209 -17 0 -209 191 -209 209 0 21 72 91 93 91 13 0 46
-24 79 -57 l58 -58 158 158 c86 86 162 157 168 157 6 0 23 -9 38 -21z"/>
<path d="M1530 3675 l0 -155 578 2 577 3 3 153 3 152 -581 0 -580 0 0 -155z"/>
<path d="M601 2904 c-20 -26 -21 -38 -21 -319 0 -281 1 -293 21 -319 l20 -26
308 0 c300 0 308 1 327 21 18 20 19 40 19 324 0 284 -1 304 -19 324 -19 20
-27 21 -327 21 l-308 0 -20 -26z m611 -111 c21 -20 38 -42 38 -47 0 -12 -387
-403 -413 -417 -16 -9 -35 6 -123 92 -57 57 -104 107 -104 113 0 14 81 96 95
96 6 0 37 -27 70 -60 l59 -60 161 160 c89 88 165 160 170 160 5 0 26 -17 47
-37z"/>
<path d="M1530 2585 l0 -155 580 0 580 0 0 155 0 155 -580 0 -580 0 0 -155z"/>
<path d="M3645 2301 c-22 -10 -50 -29 -61 -42 -12 -13 -277 -467 -590 -1009
l-569 -985 0 -66 c0 -82 31 -136 98 -168 l44 -21 1170 2 1170 3 41 29 c70 48
98 136 70 217 -13 39 -1107 1937 -1144 1985 -50 67 -151 91 -229 55z m561
-1189 l472 -817 -473 -3 c-261 -1 -690 -1 -954 0 l-480 3 410 710 c226 391
440 761 476 823 36 62 68 110 71 107 3 -3 218 -374 478 -823z"/>
<path d="M3655 1465 l-25 -24 0 -346 0 -346 25 -24 c34 -35 106 -35 140 0 l25
24 0 346 0 346 -25 24 c-18 19 -35 25 -70 25 -35 0 -52 -6 -70 -25z"/>
<path d="M3678 644 c-35 -19 -48 -43 -48 -92 0 -82 106 -124 162 -64 14 15 28
38 31 51 9 35 -17 87 -52 105 -37 20 -58 20 -93 0z"/>
<path d="M609 1821 l-24 -19 -3 -289 c-2 -158 0 -298 3 -310 13 -53 12 -53
345 -53 346 0 334 -3 345 73 4 23 5 162 3 309 -3 241 -5 269 -21 285 -16 16
-46 18 -321 21 -288 3 -304 2 -327 -17z m610 -126 c17 -20 31 -39 31 -43 0
-11 -414 -422 -425 -422 -14 0 -215 202 -215 216 0 11 84 94 96 94 3 0 35 -28
70 -62 l65 -62 157 157 c86 86 164 157 173 157 10 0 31 -16 48 -35z"/>
<path d="M1530 1495 l0 -155 580 0 581 0 -3 153 -3 152 -577 3 -578 2 0 -155z"/>
</g>
</svg>
