<?xml version="1.0" standalone="no"?>
<!DOCTYPE svg PUBLIC "-//W3C//DTD SVG 20010904//EN"
 "http://www.w3.org/TR/2001/REC-SVG-20010904/DTD/svg10.dtd">
<svg version="1.0" xmlns="http://www.w3.org/2000/svg"
 width="980.000000pt" height="728.000000pt" viewBox="0 0 980.000000 728.000000"
 preserveAspectRatio="xMidYMid meet">

<g transform="translate(0.000000,728.000000) scale(0.100000,-0.100000)"
fill="#000000" stroke="none">
<path d="M5574 7256 c-87 -28 -176 -109 -236 -213 -59 -105 -463 -549 -770
-848 -921 -897 -1913 -1592 -2914 -2041 -445 -199 -774 -310 -1442 -484 -91
-23 -146 -110 -185 -288 -17 -80 -21 -134 -21 -302 -1 -285 16 -371 113 -575
147 -310 365 -555 493 -555 13 0 78 14 146 32 l123 31 23 -24 c13 -13 390
-461 839 -996 449 -534 821 -974 826 -978 8 -4 948 241 960 251 2 2 -184 301
-413 665 l-416 662 45 48 c66 71 60 123 -22 200 -58 55 -100 81 -188 115 l-80
32 -88 139 -88 138 53 7 c110 14 468 28 706 28 1102 -1 2322 -206 3445 -580
131 -44 266 -95 300 -114 105 -58 180 -79 272 -74 62 4 92 11 135 32 384 197
497 1158 279 2378 -207 1160 -668 2307 -1174 2924 -148 179 -311 313 -455 374
-68 28 -204 37 -266 16z m195 -272 c304 -141 730 -810 1039 -1630 289 -768
477 -1648 500 -2349 24 -715 -92 -1215 -283 -1215 -16 0 -54 11 -84 25 -300
140 -728 811 -1036 1625 -242 641 -407 1337 -482 2030 -25 233 -25 791 0 970
24 174 62 321 107 415 42 87 51 100 94 133 37 29 78 28 145 -4z"/>
<path d="M6189 4967 c-62 -23 -97 -55 -126 -115 -59 -120 -37 -383 53 -643 72
-207 162 -338 261 -375 87 -34 201 0 272 81 40 46 84 135 102 205 17 69 17
255 0 335 -47 216 -184 416 -336 491 -67 32 -170 42 -226 21z"/>
<path d="M8275 6937 c-38 -67 -70 -125 -70 -128 0 -4 54 -43 120 -86 158 -105
256 -184 389 -312 444 -432 710 -987 777 -1621 17 -161 7 -502 -20 -655 -51
-296 -149 -587 -272 -811 -21 -39 -39 -76 -39 -81 0 -5 56 -41 125 -80 l125
-72 46 86 c235 430 359 962 340 1458 -25 668 -259 1279 -684 1785 -96 115
-276 291 -392 384 -72 57 -360 256 -371 256 -2 0 -35 -55 -74 -123z"/>
<path d="M7889 6268 c-24 -40 -55 -95 -71 -121 -15 -26 -28 -52 -28 -56 0 -5
20 -21 44 -35 80 -47 210 -149 295 -230 532 -515 692 -1299 404 -1976 -25 -58
-57 -125 -71 -149 -30 -52 -39 -43 121 -133 87 -49 111 -58 118 -47 95 148
196 429 242 669 31 165 31 530 -1 700 -108 586 -418 1061 -903 1386 -53 35
-99 64 -102 64 -3 0 -25 -33 -48 -72z"/>
<path d="M7472 5548 c-23 -40 -55 -96 -72 -125 l-30 -52 57 -38 c384 -255 529
-782 329 -1196 -19 -40 -34 -72 -33 -73 36 -22 250 -144 253 -144 10 0 82 164
109 245 38 118 55 232 55 375 0 342 -123 642 -360 880 -84 84 -233 200 -257
200 -5 0 -28 -33 -51 -72z"/>
</g>
</svg>
