<?xml version="1.0" standalone="no"?>
<!DOCTYPE svg PUBLIC "-//W3C//DTD SVG 20010904//EN"
 "http://www.w3.org/TR/2001/REC-SVG-20010904/DTD/svg10.dtd">
<svg version="1.0" xmlns="http://www.w3.org/2000/svg"
 width="886.000000pt" height="980.000000pt" viewBox="0 0 886.000000 980.000000"
 preserveAspectRatio="xMidYMid meet">

<g transform="translate(0.000000,980.000000) scale(0.100000,-0.100000)"
fill="#000000" stroke="none">
<path d="M3350 9785 c-220 -49 -388 -208 -568 -540 -154 -283 -227 -374 -384
-478 -45 -30 -189 -110 -318 -177 -129 -67 -265 -142 -302 -166 -81 -54 -149
-127 -182 -198 -32 -68 -66 -197 -69 -266 l-2 -55 1375 -3 c1346 -2 2538 8
2573 23 25 10 22 75 -9 181 -34 120 -76 195 -144 257 -71 66 -141 108 -410
243 -256 129 -367 201 -450 291 -60 66 -130 173 -185 283 -92 184 -239 389
-331 465 -65 52 -172 106 -259 130 -85 23 -255 28 -335 10z m227 -500 c62 -19
148 -92 174 -150 23 -49 25 -161 5 -209 -18 -43 -81 -113 -120 -133 -22 -12
-59 -17 -132 -17 l-102 -1 -48 41 c-70 59 -104 129 -104 213 1 111 58 197 164
247 60 28 93 30 163 9z"/>
<path d="M368 8700 c-135 -13 -254 -94 -314 -213 -26 -50 -27 -58 -35 -316
-10 -328 -10 -6453 0 -6896 7 -295 9 -324 28 -367 30 -65 101 -139 183 -187
l68 -41 1666 0 c916 0 1666 1 1666 3 0 1 43 119 95 262 52 143 95 265 95 271
0 20 -245 24 -1697 24 l-1443 0 0 3410 0 3410 270 0 270 0 0 44 c0 57 41 180
93 281 33 63 67 106 161 203 l119 122 -574 -1 c-316 -1 -609 -5 -651 -9z"/>
<path d="M5531 8602 c159 -164 211 -253 257 -437 l26 -105 261 0 262 0 5
-2083 c4 -1468 8 -2089 16 -2103 10 -17 44 14 331 301 l321 319 -1 1796 c0
987 -4 1874 -8 1970 -7 162 -9 179 -34 227 -35 68 -113 145 -180 178 -81 39
-173 44 -801 45 l-559 0 104 -108z"/>
<path d="M3800 5355 l-855 -855 -292 292 -293 293 -270 -270 -270 -270 562
-562 563 -563 1127 1127 1128 1128 -267 267 c-148 148 -270 268 -273 268 -3 0
-390 -385 -860 -855z"/>
<path d="M8145 5029 c-84 -8 -138 -28 -225 -84 -96 -62 -390 -334 -390 -362 0
-4 195 -203 433 -441 l433 -433 171 174 c94 96 187 198 206 228 69 105 95 275
62 404 -68 260 -309 480 -564 513 -31 4 -87 4 -126 1z"/>
<path d="M5667 2722 l-1528 -1528 -105 -369 c-110 -389 -184 -658 -208 -763
l-14 -63 36 7 c59 11 378 97 782 211 l375 106 1538 1536 1538 1536 -431 428
c-238 235 -437 427 -444 427 -6 0 -699 -687 -1539 -1528z m-1149 -1732 c43
-22 101 -60 130 -86 84 -74 192 -226 192 -271 0 -27 -52 -49 -255 -107 l-159
-46 -63 62 c-35 34 -63 69 -63 78 0 44 118 410 132 410 5 0 44 -18 86 -40z"/>
<path d="M6396 1269 c-329 -330 -596 -602 -594 -602 2 -1 210 0 463 3 l460 6
71 46 c83 54 130 105 178 198 l36 68 0 428 c0 236 -4 435 -8 442 -6 9 -187
-167 -606 -589z"/>
</g>
</svg>
