<?xml version="1.0" standalone="no"?>
<!DOCTYPE svg PUBLIC "-//W3C//DTD SVG 20010904//EN"
 "http://www.w3.org/TR/2001/REC-SVG-20010904/DTD/svg10.dtd">
<svg version="1.0" xmlns="http://www.w3.org/2000/svg"
 width="512.000000pt" height="512.000000pt" viewBox="0 0 512.000000 512.000000"
 preserveAspectRatio="xMidYMid meet">

<g transform="translate(0.000000,512.000000) scale(0.100000,-0.100000)"
fill="#000000" stroke="none">
<path d="M583 5105 c-78 -21 -126 -49 -181 -104 -60 -60 -99 -135 -112 -217
-14 -82 -13 -3023 0 -3094 34 -177 167 -305 343 -331 88 -12 1576 -11 1657 1
133 22 245 106 303 227 l32 68 3 580 2 580 -82 56 c-46 31 -107 78 -136 104
l-52 47 0 -481 0 -481 -900 0 -900 0 0 1175 0 1175 900 0 900 0 0 -320 c0
-296 4 -344 25 -310 9 15 130 74 193 94 l52 18 0 447 c0 414 -1 452 -19 503
-48 141 -162 242 -301 268 -33 6 -361 10 -864 9 -666 0 -820 -3 -863 -14z
m1563 -379 c21 -18 28 -32 28 -61 0 -29 -7 -43 -28 -61 -31 -28 -56 -30 -95
-9 -49 25 -57 90 -16 130 31 32 75 32 111 1z m-316 -61 l0 -65 -370 0 -370 0
0 65 0 65 370 0 370 0 0 -65z m-323 -2716 c106 -40 132 -174 48 -248 -46 -40
-93 -48 -150 -26 -63 24 -90 65 -90 137 0 66 22 103 76 130 39 20 75 23 116 7z"/>
<path d="M1780 3921 c-74 -23 -117 -61 -149 -131 -69 -152 43 -320 211 -320
176 1 283 192 193 346 -50 85 -165 132 -255 105z"/>
<path d="M2865 3798 c-269 -27 -448 -160 -463 -344 -13 -166 121 -376 307
-481 l51 -28 0 -99 0 -98 33 6 c59 11 219 99 250 137 51 65 45 166 -13 232
-16 18 -70 55 -121 82 -120 64 -229 166 -229 214 0 117 149 174 318 122 82
-24 195 -97 264 -168 91 -95 222 -298 450 -697 l159 -280 -176 -380 c-651
-1405 -620 -1341 -646 -1340 -13 1 -60 7 -104 13 -55 7 -125 8 -223 2 -321
-20 -522 32 -962 250 -197 98 -230 129 -230 219 l0 60 -141 0 -141 0 4 -87 c5
-104 31 -171 98 -248 66 -77 126 -117 313 -208 465 -229 716 -291 1074 -266
152 11 193 7 321 -33 52 -16 62 -22 57 -37 -4 -15 49 -43 342 -179 190 -89
347 -161 348 -159 9 11 1025 2205 1025 2213 0 6 -153 82 -340 169 -266 123
-343 155 -354 146 -11 -9 -43 40 -171 266 -330 578 -456 754 -631 879 -142
101 -291 140 -469 122z"/>
<path d="M957 3221 l-247 -309 0 -351 0 -351 745 0 745 0 0 507 c0 481 -1 505
-17 491 -70 -60 -485 -389 -487 -387 -2 2 -110 160 -240 351 -131 191 -241
350 -245 352 -4 3 -119 -134 -254 -303z"/>
</g>
</svg>
