<?xml version="1.0" standalone="no"?>
<!DOCTYPE svg PUBLIC "-//W3C//DTD SVG 20010904//EN"
 "http://www.w3.org/TR/2001/REC-SVG-20010904/DTD/svg10.dtd">
<svg version="1.0" xmlns="http://www.w3.org/2000/svg"
 width="1600.000000pt" height="1600.000000pt" viewBox="0 0 1600.000000 1600.000000"
 preserveAspectRatio="xMidYMid meet">

<g transform="translate(0.000000,1600.000000) scale(0.100000,-0.100000)"
fill="#000000" stroke="none">
<path d="M7793 14940 c-123 -23 -248 -92 -329 -184 -25 -28 -105 -152 -178
-274 -72 -122 -151 -246 -175 -274 -133 -154 -351 -248 -575 -248 -166 0 -227
22 -514 184 -224 126 -261 144 -334 161 -293 69 -595 -104 -690 -395 -18 -57
-22 -101 -29 -370 -8 -323 -15 -374 -63 -483 -38 -86 -96 -165 -178 -242 -86
-81 -159 -127 -256 -161 -103 -36 -183 -44 -442 -44 -268 0 -332 -10 -449 -65
-97 -46 -212 -160 -259 -256 -50 -104 -65 -178 -60 -294 7 -131 21 -167 179
-450 155 -279 171 -321 177 -475 3 -94 0 -131 -17 -205 -39 -162 -131 -317
-241 -404 -28 -22 -150 -100 -272 -173 -261 -156 -332 -218 -392 -339 -85
-174 -85 -354 0 -528 61 -124 131 -185 399 -345 127 -76 254 -158 283 -183
106 -91 186 -232 223 -395 27 -118 23 -279 -10 -378 -11 -36 -77 -166 -147
-290 -159 -283 -175 -325 -182 -455 -5 -116 10 -193 59 -294 44 -88 151 -199
237 -244 124 -65 147 -68 482 -77 347 -10 374 -14 520 -87 158 -80 297 -233
359 -397 38 -103 42 -137 50 -451 7 -284 10 -315 30 -375 60 -173 199 -313
369 -372 57 -19 86 -23 192 -22 159 1 173 6 465 169 125 69 261 137 303 151
190 64 437 31 626 -83 114 -70 170 -138 326 -399 159 -266 222 -341 337 -402
78 -41 198 -72 278 -72 80 0 200 31 278 72 113 59 178 136 333 398 152 257
215 333 330 403 188 114 436 147 624 84 41 -14 179 -83 305 -153 267 -148 336
-174 463 -174 163 0 290 50 407 161 49 47 84 91 108 137 65 123 68 147 77 482
5 168 14 325 20 350 55 230 241 445 454 525 112 42 150 47 461 55 325 8 351
12 470 72 83 42 201 163 243 249 82 169 82 359 1 522 -17 34 -79 148 -137 252
-133 240 -153 294 -159 445 -4 101 -1 127 21 214 31 121 68 201 130 283 68 90
116 126 371 279 269 161 338 221 398 344 86 175 87 355 1 529 -61 124 -130
183 -404 346 -192 115 -247 153 -305 210 -85 85 -135 169 -177 295 -30 88 -32
105 -32 235 -1 179 10 214 154 475 187 339 200 373 200 515 0 163 -53 290
-170 407 -58 59 -96 86 -151 113 -116 55 -182 65 -444 65 -254 1 -342 9 -437
40 -181 60 -366 229 -443 405 -51 113 -57 162 -65 480 -9 328 -15 369 -73 479
-17 34 -63 93 -102 132 -180 183 -445 226 -673 110 -37 -19 -152 -82 -257
-140 -242 -136 -289 -151 -460 -151 -151 0 -226 16 -350 76 -95 45 -179 110
-235 180 -22 28 -100 151 -172 273 -178 297 -260 378 -438 430 -68 20 -199 28
-267 16z m2349 -3699 c335 -92 489 -498 299 -787 -25 -38 -473 -492 -1287
-1305 -1356 -1352 -1287 -1289 -1435 -1324 -119 -28 -225 -16 -343 37 -68 30
-97 57 -770 727 -435 434 -713 718 -737 754 -112 171 -113 397 -3 565 103 156
260 242 445 242 103 0 189 -23 266 -72 29 -19 229 -209 450 -428 219 -218 437
-433 486 -480 l88 -84 1037 1035 c783 781 1051 1043 1095 1068 119 69 276 89
409 52z"/>
<path d="M3706 4048 c-203 -486 -463 -1107 -578 -1382 -115 -274 -207 -501
-204 -503 4 -4 741 58 1772 149 133 11 249 18 257 15 8 -3 317 -361 688 -797
440 -517 675 -786 680 -778 4 7 144 342 312 743 167 402 418 1002 556 1333
139 332 251 605 249 607 -2 1 -34 12 -73 25 -103 33 -262 110 -362 175 -216
141 -375 309 -525 553 l-37 61 -133 -68 c-246 -125 -427 -170 -708 -178 -157
-4 -203 -2 -307 16 -415 70 -783 296 -1042 639 -43 56 -98 141 -122 187 -24
47 -46 85 -49 85 -3 0 -171 -397 -374 -882z"/>
<path d="M11690 4899 c-51 -121 -197 -316 -343 -455 -176 -168 -386 -295 -609
-368 -418 -137 -851 -101 -1256 105 l-133 68 -40 -64 c-157 -249 -294 -394
-508 -539 -98 -67 -275 -154 -379 -187 -63 -20 -71 -26 -66 -43 8 -24 1103
-2646 1113 -2664 5 -8 242 264 677 774 368 433 672 792 676 798 5 7 312 -16
1023 -78 559 -48 1018 -86 1020 -84 5 5 -1149 2768 -1156 2768 -4 0 -12 -14
-19 -31z"/>
</g>
</svg>
